<mxfile host="app.diagrams.net" modified="2024-05-25T10:22:03.433Z" agent="Mozilla/5.0 (Windows NT 10.0; Win64; x64) AppleWebKit/537.36 (KHTML, like Gecko) Chrome/125.0.0.0 Safari/537.36" version="24.4.4" etag="Ttdum3TAQ9r1jP_1lper" type="github">
  <diagram name="第 1 页" id="bYxiLcnrEEYzWKVSHVgT">
    <mxGraphModel>
      <root>
        <mxCell id="0" />
        <mxCell id="1" parent="0" />
      </root>
    </mxGraphModel>
  </diagram>
</mxfile>
